<svg height="512pt" viewBox="0 0 512.23973 512" width="512pt" xmlns="http://www.w3.org/2000/svg"><g fill="#ff8a65"><path d="m72.121094 80.121094c0 13.253906-10.746094 24-24 24-13.257813 0-24-10.746094-24-24 0-13.257813 10.742187-24 24-24 13.253906 0 24 10.742187 24 24zm0 0"/><path d="m56.121094 296.121094c0 13.253906-10.746094 24-24 24-13.257813 0-24-10.746094-24-24 0-13.257813 10.742187-24 24-24 13.253906 0 24 10.742187 24 24zm0 0"/><path d="m192.121094 480.121094c0 13.253906-10.746094 24-24 24-13.257813 0-24-10.746094-24-24 0-13.257813 10.742187-24 24-24 13.253906 0 24 10.742187 24 24zm0 0"/><path d="m488.121094 440.121094c0 13.253906-10.746094 24-24 24-13.257813 0-24-10.746094-24-24 0-13.257813 10.742187-24 24-24 13.253906 0 24 10.742187 24 24zm0 0"/><path d="m504.121094 352.121094c0 13.253906-10.746094 24-24 24-13.257813 0-24-10.746094-24-24 0-13.257813 10.742187-24 24-24 13.253906 0 24 10.742187 24 24zm0 0"/><path d="m391.878906 120.359375c-28.117187-28.117187-73.707031-28.117187-101.824218 0l-79.199219 79.199219c-28.117188 28.121094-28.113281 73.710937.007812 101.824218 28.121094 28.117188 73.707031 28.113282 101.824219-.007812l79.199219-79.199219c28.113281-28.117187 28.109375-73.703125-.007813-101.816406zm-107.480468 152.726563c-12.554688 12.128906-32.511719 11.957031-44.855469-.386719s-12.519531-32.304688-.390625-44.859375l79.199218-79.199219c12.496094-12.496094 32.757813-12.496094 45.257813 0 12.496094 12.496094 12.496094 32.757813 0 45.253906zm0 0"/></g><path d="m210.863281 199.550781c-13.523437 13.484375-21.097656 31.816407-21.039062 50.914063-.078125 7.796875 1.203125 15.550781 3.785156 22.910156l-44.96875 44.96875c-6.746094 6.730469-10.140625 16.117188-9.253906 25.601562.886719 9.488282 5.960937 18.085938 13.835937 23.445313 13.355469 7.972656 30.390625 6.027344 41.601563-4.75l43.953125-43.953125 34.277344-34.28125c1.925781-1.894531 3.582031-4.050781 4.921874-6.398438 7.355469-12.5625 5.304688-28.503906-4.988281-38.796874-10.292969-10.292969-26.234375-12.34375-38.796875-4.988282 1.34375-2.347656 3-4.5 4.929688-6.398437l34.292968-34.304688c23.613282 7.953125 41.4375 27.546875 47.125 51.804688 5.683594 24.257812-1.574218 49.730469-19.195312 67.347656l-79.199219 79.199219c-28.28125 27.089844-73.03125 26.609375-100.722656-1.085938-27.6875-27.695312-28.164063-72.445312-1.070313-100.722656zm0 0" fill="#ffe082"/><path d="m512.121094 144.121094h-95.953125c-7.988281-22.40625-25.632813-40.035156-48.046875-48v-96h-16v92.054687c-13.503906-1.910156-27.269532-.347656-40 4.535157v-96.589844h-16v104.941406c-4.199219 2.824219-8.125 6.039062-11.722656 9.601562l-52.277344 52.3125v-51.542968l32-32v-83.3125h-16v76.6875l-27.3125 27.3125h-89.375l-32-32h-20.449219c-4.027344-15.605469-19.03125-25.777344-35.015625-23.746094-15.988281 2.03125-27.96875 15.628906-27.96875 31.746094 0 16.113281 11.980469 29.714844 27.96875 31.742187 15.984375 2.03125 30.988281-8.140625 35.015625-23.742187h13.824219l64 64h59.3125v30.855468l-9.144532 9.144532h-91.542968l-48-48h-67.3125v16h60.6875l48 48h82.167968l-32 32h-67.542968l-48-48h-43.3125v16h36.6875l32 32h-68.6875v16h142.855468s-30.542968 30.75-31.648437 32h-48.34375c-4.027344-15.605469-19.03125-25.777344-35.015625-23.746094-15.988281 2.03125-27.96875 15.628906-27.96875 31.746094 0 16.113281 11.980469 29.714844 27.96875 31.742187 15.984375 2.03125 30.988281-8.140625 35.015625-23.742187h37.28125c-13.238281 25.519531-11.769531 56.175781 3.855469 80.3125v58.398437l-56 24v45.289063h16v-34.730469l56-24v-50.949219c11.425781 9.484375 25.285156 15.582032 40 17.597656v29.183594c-15.605469 4.03125-25.777344 19.03125-23.746094 35.015625 2.03125 15.988281 15.628906 27.96875 31.746094 27.96875 16.113281 0 29.714844-11.980469 31.742187-27.96875 2.03125-15.984375-8.140625-30.984375-23.742187-35.015625v-28.511718c14.304687-.835938 28.125-5.511719 40-13.535157v104.945313h16v-118.855469l16-16v43.292969l64 40v51.5625h16v-60.441406l-64-40v-50.398438l24-24v59.382812l80 48v67.457032h16v-64h49.136718c4.027344 15.601562 19.027344 25.773437 35.015626 23.742187 15.984374-2.027343 27.964843-15.628906 27.964843-31.742187 0-16.117188-11.980469-29.714844-27.964843-31.746094-15.988282-2.03125-30.988282 8.140625-35.015626 23.746094h-54.921874l-74.214844-44.527344v-66.328125l2.910156-2.921875 14.234375-14.222656h51.542969l56 56h20.449218c4.027344 15.601562 19.027344 25.773437 35.015626 23.742187 15.984374-2.027343 27.964843-15.628906 27.964843-31.742187 0-16.117188-11.980469-29.714844-27.964843-31.746094-15.988282-2.03125-30.988282 8.140625-35.015626 23.746094h-13.824218l-40-40h116.6875v-16h-174.863282l32-32h66.175782l48-48h28.6875v-16h-35.3125l-48 48h-43.550782l12.285157-12.289063c15.046875-14.96875 23.480469-35.335937 23.425781-56.558593-.023438-3.734376-.308594-7.460938-.847656-11.152344h92zm-464-48c-8.835938 0-16-7.164063-16-16 0-8.835938 7.164062-16 16-16 8.835937 0 16 7.164062 16 16 0 8.835937-7.164063 16-16 16zm-16 216c-8.835938 0-16-7.164063-16-16 0-8.835938 7.164062-16 16-16 8.835937 0 16 7.164062 16 16 0 8.835937-7.164063 16-16 16zm432 112c8.835937 0 16 7.164062 16 16 0 8.835937-7.164063 16-16 16-8.835938 0-16-7.164063-16-16 0-8.835938 7.164062-16 16-16zm16-88c8.835937 0 16 7.164062 16 16 0 8.835937-7.164063 16-16 16-8.835938 0-16-7.164063-16-16 0-8.835938 7.164062-16 16-16zm-316.6875-200-16-16h68.6875v16zm41.773437 170.910156c5.773438 5.746094 12.398438 10.566406 19.640625 14.296875l-36.609375 36.617187c-9.496093 9.0625-24.441406 9.0625-33.941406 0-9.371094-9.375-9.371094-24.566406 0-33.9375l36.542969-36.542968c3.765625 7.214844 8.613281 13.8125 14.367187 19.566406zm-21.085937 173.089844c0 8.835937-7.164063 16-16 16-8.835938 0-16-7.164063-16-16 0-8.835938 7.164062-16 16-16 8.835937 0 16 7.164062 16 16zm111.597656-173.089844-2.824219 2.832031-76.367187 76.367188c-24.996094 24.996093-65.523438 24.996093-90.519532 0-24.996093-24.996094-24.996093-65.523438 0-90.519531l56.664063-56.664063c-.566406 3.78125-.863281 7.59375-.894531 11.417969.023437 6.976562.953125 13.925781 2.765625 20.664062l-41.558594 41.550782c-15.625 15.621093-15.625 40.949218-.003906 56.570312 15.621093 15.625 40.949219 15.625 56.570312.007812l79.199219-79.203124c2.390625-2.394532 4.46875-5.082032 6.1875-8 6.769531-11.488282 7.359375-25.601563 1.574219-37.617188-5.785157-12.015625-17.1875-20.351562-30.390625-22.222656l19.292968-19.304688c16.886719 7.058594 29.914063 21.050782 35.738282 38.402344 7.753906 23.046875 1.789062 48.496094-15.402344 65.695312zm-50.910156-39.597656c-7.300782-7.148438-9.121094-18.207032-4.488282-27.3125 9.152344-4.457032 20.128907-2.582032 27.28125 4.660156 7.152344 7.246094 8.890626 18.242188 4.316407 27.339844-9.121094 4.3125-19.96875 2.4375-27.109375-4.6875zm62.222656-62.226563c-5.773438-5.746093-12.402344-10.570312-19.648438-14.296875l36.617188-36.613281c9.5-9.066406 24.445312-9.066406 33.945312 0 9.375 9.371094 9.375 24.570313 0 33.941406l-36.617187 36.609375c-3.730469-7.242187-8.550781-13.867187-14.296875-19.640625zm79.199219 11.3125-56.664063 56.671875c.566406-3.78125.867188-7.59375.898438-11.414062-.015625-6.984375-.945313-13.9375-2.761719-20.679688l41.554687-41.546875c15.503907-15.640625 15.445313-40.871093-.125-56.441406-15.574218-15.574219-40.804687-15.628906-56.445312-.125l-79.199219 79.199219c-15.621093 15.621094-15.621093 40.949218 0 56.566406 6.152344 6.121094 14.140625 10.054688 22.742188 11.203125l-19.390625 19.390625c-19.609375-8.273438-33.816406-25.765625-37.894532-46.65625-4.074218-20.890625 2.511719-42.441406 17.574219-57.480469l79.199219-79.199219c24.996094-24.996093 65.519531-24.996093 90.511719 0 24.996093 24.996094 24.996093 65.519532 0 90.511719zm0 0"/></svg>