<?xml version="1.0"?>
<svg xmlns="http://www.w3.org/2000/svg" viewBox="0 0 512 512" width="512" height="512"><g id="User_1_Male_2_Female" data-name="User 1 Male 2 Female"><g id="Filled"><path d="M482.912,29.088A72,72,0,0,0,360,80v48.842A15.16,15.16,0,0,0,375.158,144H488.842A15.16,15.16,0,0,0,504,128.842V80A71.759,71.759,0,0,0,482.912,29.088Z" style="fill:#525252"/><path d="M376.333,128A132.585,132.585,0,0,1,360,126.985v1.857A15.16,15.16,0,0,0,375.158,144H488.842A15.16,15.16,0,0,0,504,128.842V80a71.711,71.711,0,0,0-6.876-30.724A132.015,132.015,0,0,1,376.333,128Z" style="fill:#3f3f3f"/><path d="M432,208s32-14.327,32-32V164.571L448,160V120H416v40l-16,4.571V176C400,193.673,432,208,432,208Z" style="fill:#fac7b7"/><path d="M392,72h80V96a40,40,0,0,1-40,40h0a40,40,0,0,1-40-40Z" style="fill:#ffdecf"/><rect x="472" y="256" width="32" height="48" style="fill:#ffdecf"/><path d="M419.2,133.9A39.938,39.938,0,0,0,432,136h0a40,40,0,0,0,39.9-37.269A88.056,88.056,0,0,1,419.2,133.9Z" style="fill:#ffd3c2"/><circle cx="411.429" cy="27.429" r="11.429" style="fill:#848484"/><circle cx="431.429" cy="47.429" r="8.571" style="fill:#848484"/><circle cx="404" cy="92" r="12" style="fill:#fff5f2"/><circle cx="424" cy="112" r="8" style="fill:#fff5f2"/><path d="M130.912,29.088A72,72,0,0,0,8,80v48.842A15.16,15.16,0,0,0,23.158,144H136.842A15.16,15.16,0,0,0,152,128.842V80A71.759,71.759,0,0,0,130.912,29.088Z" style="fill:#525252"/><path d="M24.333,128A132.585,132.585,0,0,1,8,126.985v1.857A15.16,15.16,0,0,0,23.158,144H136.842A15.16,15.16,0,0,0,152,128.842V80a71.711,71.711,0,0,0-6.876-30.724A132.015,132.015,0,0,1,24.333,128Z" style="fill:#3f3f3f"/><path d="M80,208s32-14.327,32-32V164.571L96,160V120H64v40l-16,4.571V176C48,193.673,80,208,80,208Z" style="fill:#fac7b7"/><path d="M40,72h80V96a40,40,0,0,1-40,40h0A40,40,0,0,1,40,96Z" style="fill:#ffdecf"/><path d="M67.2,133.9A39.938,39.938,0,0,0,80,136h0a40,40,0,0,0,39.9-37.269A88.056,88.056,0,0,1,67.2,133.9Z" style="fill:#ffd3c2"/><circle cx="59.429" cy="27.429" r="11.429" style="fill:#848484"/><circle cx="79.429" cy="47.429" r="8.571" style="fill:#848484"/><circle cx="52" cy="92" r="12" style="fill:#fff5f2"/><circle cx="72" cy="112" r="8" style="fill:#fff5f2"/><rect x="8" y="256" width="32" height="48" style="fill:#ffdecf"/><path d="M256,440h0a56,56,0,0,0,56-56v-5l-16-3V312H216v64l-16,3v5A56,56,0,0,0,256,440Z" style="fill:#fac7b7"/><path d="M384.846,392.659,312,379v5a56,56,0,0,1-56,56h0a56,56,0,0,1-56-56v-5l-72.846,13.659A48,48,0,0,0,88,439.836V512H424V439.836A48,48,0,0,0,384.846,392.659Z" style="fill:#5fc4b8"/><path d="M256,128h0c-54.979,0-96.3,48.537-86.57,100.941C178.593,211.876,201.86,208,201.86,208l21.077,14.018a59.741,59.741,0,0,0,66.126,0L310.14,208s23.267,3.876,32.43,20.941C352.3,176.537,310.98,128,256,128Z" style="fill:#525252"/><path d="M310.14,208l-21.077,14.018a59.748,59.748,0,0,1-66.126,0L201.86,208s-23.267,3.876-32.43,20.941c.124.667.25,1.334.39,2l13.1,60.516C192.721,322.418,222.184,344,256,344h0c33.816,0,63.279-21.582,73.078-52.541l13.1-60.516c.14-.668.266-1.335.39-2C333.407,211.876,310.14,208,310.14,208Z" style="fill:#ffdecf"/><path d="M386.307,392.966A180.386,180.386,0,0,1,286.289,512H424V439.836A47.994,47.994,0,0,0,386.307,392.966Z" style="fill:#50b5a6"/><path d="M294.827,136.761a120.073,120.073,0,0,1-63.68,89.817,59.72,59.72,0,0,0,57.916-4.56L310.14,208s23.267,3.876,32.43,20.941C349.812,189.922,328.752,153.052,294.827,136.761Z" style="fill:#3f3f3f"/><path d="M197.41,317.373A77.253,77.253,0,0,0,256,344h0c33.816,0,63.279-21.582,73.078-52.541l6.41-29.605A135.944,135.944,0,0,1,197.41,317.373Z" style="fill:#f7cfc4"/><circle cx="200" cy="248" r="16" style="fill:#fff5f2"/><circle cx="228" cy="276" r="12" style="fill:#fff5f2"/><circle cx="148.571" cy="428.571" r="20.571" style="fill:#97e5de"/><circle cx="184.571" cy="464.571" r="15.429" style="fill:#97e5de"/><circle cx="220" cy="156" r="12" style="fill:#848484"/><circle cx="240" cy="176" r="8" style="fill:#848484"/><path d="M486.593,171.027,464,164.571V176c0,17.673-32,32-32,32s-32-14.327-32-32V164.571l-22.593,6.456A24,24,0,0,0,360,194.1V256h32v48h80V256h32V194.1A24,24,0,0,0,486.593,171.027Z" style="fill:#ff9e80"/><path d="M134.593,171.027,112,164.571V176c0,17.673-32,32-32,32s-32-14.327-32-32V164.571l-22.593,6.456A24,24,0,0,0,8,194.1V256H40v48h80V256h32V194.1A24,24,0,0,0,134.593,171.027Z" style="fill:#ff9e80"/><path d="M120,256h32V194.1a23.936,23.936,0,0,0-3.542-12.524A180.421,180.421,0,0,1,40,272.32V304h80Z" style="fill:#ff8b6c"/><path d="M500.458,181.579A180.421,180.421,0,0,1,392,272.32V304h80V256h32V194.1A23.936,23.936,0,0,0,500.458,181.579Z" style="fill:#ff8b6c"/><rect x="360" y="256" width="32" height="48" style="fill:#ffdecf"/><rect x="120" y="256" width="32" height="48" style="fill:#ffdecf"/></g><g id="Outline"><path d="M488.792,163.334,456,153.966V137.542A48.014,48.014,0,0,0,480,96V78.667A14.683,14.683,0,0,0,465.333,64H418.667a8,8,0,0,0,0,16H464V96a32,32,0,0,1-64,0V80a8,8,0,0,0-16,0V96a48.014,48.014,0,0,0,24,41.542v16.424l-32.792,9.368a8,8,0,1,0,4.4,15.385l12.4-3.542V176c0,22.215,32.972,37.618,36.73,39.3l3.27,1.463,3.27-1.463C439.028,213.618,472,198.215,472,176v-.823l12.4,3.542A16.066,16.066,0,0,1,496,194.1V248H480V232a8,8,0,0,0-16,0v64a8,8,0,0,0,16,0V264h16v32a8,8,0,0,0,16,0V194.1A32.136,32.136,0,0,0,488.792,163.334ZM456,176c0,7.668-13.327,17.63-24.008,23.122C421.313,193.65,408,183.706,408,176v-5.394l16-4.572V143.321a47.468,47.468,0,0,0,16,0v22.713l16,4.572Z"/><path d="M375.16,152h6.44a8,8,0,0,0,0-16h-6.44a7.191,7.191,0,0,1-7.16-7.16V80a63.95,63.95,0,0,1,8.85-32.5,8,8,0,0,0-13.781-8.14l-.04.08A79.888,79.888,0,0,0,352,80v48.84A23.147,23.147,0,0,0,375.16,152Z"/><path d="M391.71,28.32a8,8,0,1,0-6.63-3.52A7.959,7.959,0,0,0,391.71,28.32Z"/><path d="M505.71,48.86A79.923,79.923,0,0,0,432.02,0H432a81.051,81.051,0,0,0-11.91.88,8,8,0,0,0,2.36,15.83A64.594,64.594,0,0,1,432,16a64,64,0,0,1,64,64v48.84a7.192,7.192,0,0,1-7.16,7.16H482.4a8,8,0,0,0,0,16h6.441A23.148,23.148,0,0,0,512,128.84V80A79.416,79.416,0,0,0,505.71,48.86Z"/><path d="M436.439,233.35a7.8,7.8,0,0,0-2.879-1.19A7.984,7.984,0,0,0,424,240a7.443,7.443,0,0,0,.16,1.56,7.919,7.919,0,0,0,.449,1.5,8.032,8.032,0,0,0,.741,1.38,7.766,7.766,0,0,0,.99,1.22A8.093,8.093,0,0,0,432,248a7.443,7.443,0,0,0,1.56-.16,7.8,7.8,0,0,0,2.879-1.19,7.728,7.728,0,0,0,1.221-.99,8.369,8.369,0,0,0,.989-1.22,8.032,8.032,0,0,0,.741-1.38,7.85,7.85,0,0,0,.45-1.5A7.443,7.443,0,0,0,440,240a8.093,8.093,0,0,0-2.34-5.66A7.728,7.728,0,0,0,436.439,233.35Z"/><path d="M436.439,265.35a7.8,7.8,0,0,0-2.879-1.19A7.984,7.984,0,0,0,424,272a7.443,7.443,0,0,0,.16,1.56,7.919,7.919,0,0,0,.449,1.5,8.032,8.032,0,0,0,.741,1.38,7.766,7.766,0,0,0,.99,1.22A8.05,8.05,0,0,0,432,280a7.443,7.443,0,0,0,1.56-.16,7.8,7.8,0,0,0,2.879-1.19,7.557,7.557,0,0,0,2.21-2.21,8.032,8.032,0,0,0,.741-1.38,7.85,7.85,0,0,0,.45-1.5A7.443,7.443,0,0,0,440,272a8.093,8.093,0,0,0-2.34-5.66A8.331,8.331,0,0,0,436.439,265.35Z"/><path d="M392,304a8,8,0,0,0,8-8V232a8,8,0,0,0-16,0v16H368a8,8,0,0,0,0,16h16v32A8,8,0,0,0,392,304Z"/><path d="M120,224a8,8,0,0,0-8,8v64a8,8,0,0,0,16,0V264h16a8,8,0,0,0,0-16H128V232A8,8,0,0,0,120,224Z"/><path d="M39.71,28.32a8,8,0,1,0-6.63-3.52A7.959,7.959,0,0,0,39.71,28.32Z"/><path d="M23.16,152H29.6a8,8,0,0,0,0-16H23.16A7.191,7.191,0,0,1,16,128.84V80a63.977,63.977,0,0,1,8.85-32.5,8,8,0,0,0-13.781-8.14l-.04.08A79.888,79.888,0,0,0,0,80v48.84A23.147,23.147,0,0,0,23.16,152Z"/><path d="M64.069,14.87a8.026,8.026,0,0,0,6.381,1.84A64.493,64.493,0,0,1,80,16a64,64,0,0,1,64,64v48.84a7.192,7.192,0,0,1-7.16,7.16H130.4a8,8,0,0,0,0,16h6.441A23.148,23.148,0,0,0,160,128.84V80A79.931,79.931,0,0,0,80.02,0H80A81.709,81.709,0,0,0,68.08.88a8,8,0,0,0-4.011,13.99Z"/><path d="M76.73,215.3,80,216.765l3.27-1.463C87.028,213.618,120,198.215,120,176v-.823l12.4,3.542a8,8,0,0,0,4.4-15.385L104,153.966V137.542A48.014,48.014,0,0,0,128,96V78.667A14.683,14.683,0,0,0,113.333,64H66.667a8,8,0,0,0,0,16H112V96a32,32,0,0,1-64,0V80a8,8,0,0,0-16,0V96a48.014,48.014,0,0,0,24,41.542v16.424l-32.791,9.368A32.136,32.136,0,0,0,0,194.1V296a8,8,0,0,0,16,0V264H32v32a8,8,0,0,0,16,0V232a8,8,0,0,0-16,0v16H16V194.1a16.066,16.066,0,0,1,11.6-15.384L40,175.177V176C40,198.215,72.972,213.618,76.73,215.3ZM56,170.606l16-4.572V143.321a47.468,47.468,0,0,0,16,0v22.713l16,4.572V176c0,7.668-13.327,17.63-24.008,23.122C69.313,193.65,56,183.706,56,176Z"/><path d="M86.649,235.56a8.369,8.369,0,0,0-.989-1.22,7.728,7.728,0,0,0-1.221-.99,7.8,7.8,0,0,0-2.879-1.19,7.809,7.809,0,0,0-3.121,0,7.893,7.893,0,0,0-1.5.45,7.986,7.986,0,0,0-1.379.74,7.589,7.589,0,0,0-2.21,2.21,8.032,8.032,0,0,0-.741,1.38,7.919,7.919,0,0,0-.449,1.5,7.685,7.685,0,0,0,0,3.12,7.919,7.919,0,0,0,.449,1.5,8.032,8.032,0,0,0,.741,1.38,7.589,7.589,0,0,0,2.21,2.21,7.986,7.986,0,0,0,1.379.74,7.893,7.893,0,0,0,1.5.45,7.69,7.69,0,0,0,3.121,0,7.8,7.8,0,0,0,2.879-1.19,7.728,7.728,0,0,0,1.221-.99,8.369,8.369,0,0,0,.989-1.22,8.032,8.032,0,0,0,.741-1.38,7.85,7.85,0,0,0,.45-1.5,7.685,7.685,0,0,0,0-3.12,7.85,7.85,0,0,0-.45-1.5A8.032,8.032,0,0,0,86.649,235.56Z"/><path d="M81.56,279.84a7.8,7.8,0,0,0,2.879-1.19,7.728,7.728,0,0,0,1.221-.99,8.369,8.369,0,0,0,.989-1.22,8.032,8.032,0,0,0,.741-1.38,7.85,7.85,0,0,0,.45-1.5,7.685,7.685,0,0,0,0-3.12,7.85,7.85,0,0,0-.45-1.5,8.032,8.032,0,0,0-.741-1.38,8.369,8.369,0,0,0-.989-1.22,7.728,7.728,0,0,0-1.221-.99,7.8,7.8,0,0,0-2.879-1.19,7.809,7.809,0,0,0-3.121,0,7.893,7.893,0,0,0-1.5.45,7.986,7.986,0,0,0-1.379.74,7.589,7.589,0,0,0-2.21,2.21,8.032,8.032,0,0,0-.741,1.38,7.919,7.919,0,0,0-.449,1.5,7.685,7.685,0,0,0,0,3.12,7.919,7.919,0,0,0,.449,1.5,8.032,8.032,0,0,0,.741,1.38,7.589,7.589,0,0,0,2.21,2.21,7.986,7.986,0,0,0,1.379.74,7.893,7.893,0,0,0,1.5.45,7.69,7.69,0,0,0,3.121,0Z"/><path d="M386.32,384.8,304,369.361V337.369c.749-.507,1.5-1.018,2.229-1.549a83.365,83.365,0,0,0,18.511-18.37,81.728,81.728,0,0,0,11.97-23.58l.1-.34,13.2-60.95A92.81,92.81,0,0,0,352,213.56a90.834,90.834,0,0,0-7.431-35.99A93.85,93.85,0,0,0,324.2,147.78a95.491,95.491,0,0,0-30.471-20.28A97.4,97.4,0,0,0,256,120a100.838,100.838,0,0,0-10.141.51,8,8,0,0,0,.8,15.96,7.473,7.473,0,0,0,.819-.04c2.811-.28,5.681-.43,8.521-.43a80.523,80.523,0,0,1,56.95,23.16,76.277,76.277,0,0,1,22.966,51.063,66.661,66.661,0,0,0-24.464-10.115l-3.114-.518-23.707,15.767a51.745,51.745,0,0,1-57.26,0L203.662,199.59l-3.114.518a66.676,66.676,0,0,0-24.468,10.117,76.408,76.408,0,0,1,20.44-48.445,8,8,0,0,0-11.76-10.86,91.693,91.693,0,0,0-22.77,81.67l13.19,60.93.11.35a81.7,81.7,0,0,0,11.97,23.58,83.361,83.361,0,0,0,18.51,18.37c.734.531,1.48,1.042,2.23,1.549v31.992L125.68,384.8A56.029,56.029,0,0,0,80,439.836V504a8,8,0,0,0,16,0V439.836a40.022,40.022,0,0,1,32.629-39.315l63.555-11.916A63.837,63.837,0,0,0,193.7,398.7a7.961,7.961,0,0,0,7.779,6.17,8.166,8.166,0,0,0,1.84-.21,8.019,8.019,0,0,0,5.971-9.56l-.02-.06a48.46,48.46,0,0,1-1.223-9.409L224,382.64v-36.8c1.714.686,3.448,1.33,5.21,1.906a86.561,86.561,0,0,0,53.58,0c1.762-.576,3.5-1.22,5.21-1.906v36.8l15.959,2.992A47.982,47.982,0,0,1,256,432a48.966,48.966,0,0,1-9.38-.91,7.45,7.45,0,0,0-1.56-.16,8,8,0,0,0-1.54,15.85A64.241,64.241,0,0,0,256,448a63.882,63.882,0,0,0,63.819-59.394l63.552,11.915A40.022,40.022,0,0,1,416,439.836V504a8,8,0,0,0,16,0V439.836A56.029,56.029,0,0,0,386.32,384.8ZM256.01,336h-.02c-30.1,0-56.36-18.73-65.33-46.61L177.9,230.448c6-8.581,17.137-12.472,22.393-13.884l18.219,12.118a67.744,67.744,0,0,0,74.979,0L311.7,216.569c5.258,1.424,16.417,5.337,22.4,13.882L321.34,289.38C312.359,317.27,286.109,336,256.01,336Z"/><path d="M216.1,145.28a7.9,7.9,0,0,0,3.56-.84,8,8,0,1,0-7.12-14.33,8,8,0,0,0,3.56,15.17Z"/><path d="M152,456a8,8,0,0,0-8,8v40a8,8,0,0,0,16,0V464A8,8,0,0,0,152,456Z"/><path d="M360,456a8,8,0,0,0-8,8v40a8,8,0,0,0,16,0V464A8,8,0,0,0,360,456Z"/><path d="M222.66,418.53a8,8,0,1,0-5.551,13.76,7.9,7.9,0,0,0,5.75-2.44,8.018,8.018,0,0,0-.179-11.3Z"/></g></g></svg>
